<svg height="10702" width="720" xmlns="http://www.w3.org/2000/svg">
<rect height="10702" fill="#555" width="720"></rect>
<text fill="#7f7" font-family="Courier New" font-size="12" xml:space="preserve">
<tspan x="10" y="26">99 megabytes installed</tspan>
<tspan x="10" y="42"></tspan>
<tspan x="10" y="58">node_modules</tspan>
<tspan x="10" y="74">└─┬ quik@0.11.2 </tspan>
<tspan x="10" y="90">  ├─┬ autoprefixer@6.7.7 </tspan>
<tspan x="10" y="106">  │ ├─┬ browserslist@1.7.7 </tspan>
<tspan x="10" y="122">  │ │ └── electron-to-chromium@1.3.5 </tspan>
<tspan x="10" y="138">  │ ├── caniuse-db@1.0.30000656 </tspan>
<tspan x="10" y="154">  │ ├── normalize-range@0.1.2 </tspan>
<tspan x="10" y="170">  │ ├── num2fraction@1.2.2 </tspan>
<tspan x="10" y="186">  │ ├─┬ postcss@5.2.17 </tspan>
<tspan x="10" y="202">  │ │ └── js-base64@2.1.9 </tspan>
<tspan x="10" y="218">  │ └── postcss-value-parser@3.3.0 </tspan>
<tspan x="10" y="234">  ├─┬ babel-core@6.24.1 </tspan>
<tspan x="10" y="250">  │ ├─┬ babel-code-frame@6.22.0 </tspan>
<tspan x="10" y="266">  │ │ ├── esutils@2.0.2 </tspan>
<tspan x="10" y="282">  │ │ └── js-tokens@3.0.1 </tspan>
<tspan x="10" y="298">  │ ├─┬ babel-generator@6.24.1 </tspan>
<tspan x="10" y="314">  │ │ ├─┬ detect-indent@4.0.0 </tspan>
<tspan x="10" y="330">  │ │ │ └─┬ repeating@2.0.1 </tspan>
<tspan x="10" y="346">  │ │ │   └── is-finite@1.0.2 </tspan>
<tspan x="10" y="362">  │ │ ├── jsesc@1.3.0 </tspan>
<tspan x="10" y="378">  │ │ └── trim-right@1.0.1 </tspan>
<tspan x="10" y="394">  │ ├── babel-helpers@6.24.1 </tspan>
<tspan x="10" y="410">  │ ├── babel-messages@6.23.0 </tspan>
<tspan x="10" y="426">  │ ├─┬ babel-register@6.24.1 </tspan>
<tspan x="10" y="442">  │ │ ├─┬ home-or-tmp@2.0.0 </tspan>
<tspan x="10" y="458">  │ │ │ ├── os-homedir@1.0.2 </tspan>
<tspan x="10" y="474">  │ │ │ └── os-tmpdir@1.0.2 </tspan>
<tspan x="10" y="490">  │ │ └── source-map-support@0.4.14 </tspan>
<tspan x="10" y="506">  │ ├── babel-template@6.24.1 </tspan>
<tspan x="10" y="522">  │ ├─┬ babel-traverse@6.24.1 </tspan>
<tspan x="10" y="538">  │ │ ├── globals@9.17.0 </tspan>
<tspan x="10" y="554">  │ │ └── invariant@2.2.2 </tspan>
<tspan x="10" y="570">  │ ├─┬ babel-types@6.24.1 </tspan>
<tspan x="10" y="586">  │ │ └── to-fast-properties@1.0.2 </tspan>
<tspan x="10" y="602">  │ ├── babylon@6.17.0 </tspan>
<tspan x="10" y="618">  │ ├── convert-source-map@1.5.0 </tspan>
<tspan x="10" y="634">  │ ├─┬ debug@2.6.3 </tspan>
<tspan x="10" y="650">  │ │ └── ms@0.7.2 </tspan>
<tspan x="10" y="666">  │ ├── json5@0.5.1 </tspan>
<tspan x="10" y="682">  │ ├─┬ minimatch@3.0.3 </tspan>
<tspan x="10" y="698">  │ │ └─┬ brace-expansion@1.1.7 </tspan>
<tspan x="10" y="714">  │ │   ├── balanced-match@0.4.2 </tspan>
<tspan x="10" y="730">  │ │   └── concat-map@0.0.1 </tspan>
<tspan x="10" y="746">  │ ├── path-is-absolute@1.0.1 </tspan>
<tspan x="10" y="762">  │ ├── private@0.1.7 </tspan>
<tspan x="10" y="778">  │ ├── slash@1.0.0 </tspan>
<tspan x="10" y="794">  │ └── source-map@0.5.6 </tspan>
<tspan x="10" y="810">  ├─┬ babel-loader@6.4.1 </tspan>
<tspan x="10" y="826">  │ ├─┬ find-cache-dir@0.1.1 </tspan>
<tspan x="10" y="842">  │ │ ├── commondir@1.0.1 </tspan>
<tspan x="10" y="858">  │ │ └── pkg-dir@1.0.0 </tspan>
<tspan x="10" y="874">  │ ├─┬ loader-utils@0.2.17 </tspan>
<tspan x="10" y="890">  │ │ ├── big.js@3.1.3 </tspan>
<tspan x="10" y="906">  │ │ └── emojis-list@2.1.0 </tspan>
<tspan x="10" y="922">  │ ├─┬ mkdirp@0.5.1 </tspan>
<tspan x="10" y="938">  │ │ └── minimist@0.0.8 </tspan>
<tspan x="10" y="954">  │ └── object-assign@4.1.1 </tspan>
<tspan x="10" y="970">  ├── babel-plugin-transform-react-constant-elements@6.23.0 </tspan>
<tspan x="10" y="986">  ├── babel-plugin-transform-react-inline-elements@6.22.0 </tspan>
<tspan x="10" y="1002">  ├── babel-plugin-transform-runtime@6.23.0 </tspan>
<tspan x="10" y="1018">  ├─┬ babel-polyfill@6.23.0 </tspan>
<tspan x="10" y="1034">  │ ├── core-js@2.4.1 </tspan>
<tspan x="10" y="1050">  │ └── regenerator-runtime@0.10.3 </tspan>
<tspan x="10" y="1066">  ├─┬ babel-preset-es2015@6.24.1 </tspan>
<tspan x="10" y="1082">  │ ├── babel-plugin-check-es2015-constants@6.22.0 </tspan>
<tspan x="10" y="1098">  │ ├── babel-plugin-transform-es2015-arrow-functions@6.22.0 </tspan>
<tspan x="10" y="1114">  │ ├── babel-plugin-transform-es2015-block-scoped-functions@6.22.0 </tspan>
<tspan x="10" y="1130">  │ ├── babel-plugin-transform-es2015-block-scoping@6.24.1 </tspan>
<tspan x="10" y="1146">  │ ├─┬ babel-plugin-transform-es2015-classes@6.24.1 </tspan>
<tspan x="10" y="1162">  │ │ ├── babel-helper-define-map@6.24.1 </tspan>
<tspan x="10" y="1178">  │ │ ├── babel-helper-function-name@6.24.1 </tspan>
<tspan x="10" y="1194">  │ │ ├── babel-helper-optimise-call-expression@6.24.1 </tspan>
<tspan x="10" y="1210">  │ │ └── babel-helper-replace-supers@6.24.1 </tspan>
<tspan x="10" y="1226">  │ ├── babel-plugin-transform-es2015-computed-properties@6.24.1 </tspan>
<tspan x="10" y="1242">  │ ├── babel-plugin-transform-es2015-destructuring@6.23.0 </tspan>
<tspan x="10" y="1258">  │ ├── babel-plugin-transform-es2015-duplicate-keys@6.24.1 </tspan>
<tspan x="10" y="1274">  │ ├── babel-plugin-transform-es2015-for-of@6.23.0 </tspan>
<tspan x="10" y="1290">  │ ├── babel-plugin-transform-es2015-function-name@6.24.1 </tspan>
<tspan x="10" y="1306">  │ ├── babel-plugin-transform-es2015-literals@6.22.0 </tspan>
<tspan x="10" y="1322">  │ ├── babel-plugin-transform-es2015-modules-amd@6.24.1 </tspan>
<tspan x="10" y="1338">  │ ├─┬ babel-plugin-transform-es2015-modules-commonjs@6.24.1 </tspan>
<tspan x="10" y="1354">  │ │ └── babel-plugin-transform-strict-mode@6.24.1 </tspan>
<tspan x="10" y="1370">  │ ├─┬ babel-plugin-transform-es2015-modules-systemjs@6.24.1 </tspan>
<tspan x="10" y="1386">  │ │ └── babel-helper-hoist-variables@6.24.1 </tspan>
<tspan x="10" y="1402">  │ ├── babel-plugin-transform-es2015-modules-umd@6.24.1 </tspan>
<tspan x="10" y="1418">  │ ├── babel-plugin-transform-es2015-object-super@6.24.1 </tspan>
<tspan x="10" y="1434">  │ ├─┬ babel-plugin-transform-es2015-parameters@6.24.1 </tspan>
<tspan x="10" y="1450">  │ │ ├── babel-helper-call-delegate@6.24.1 </tspan>
<tspan x="10" y="1466">  │ │ └── babel-helper-get-function-arity@6.24.1 </tspan>
<tspan x="10" y="1482">  │ ├── babel-plugin-transform-es2015-shorthand-properties@6.24.1 </tspan>
<tspan x="10" y="1498">  │ ├── babel-plugin-transform-es2015-spread@6.22.0 </tspan>
<tspan x="10" y="1514">  │ ├─┬ babel-plugin-transform-es2015-sticky-regex@6.24.1 </tspan>
<tspan x="10" y="1530">  │ │ └── babel-helper-regex@6.24.1 </tspan>
<tspan x="10" y="1546">  │ ├── babel-plugin-transform-es2015-template-literals@6.22.0 </tspan>
<tspan x="10" y="1562">  │ ├── babel-plugin-transform-es2015-typeof-symbol@6.23.0 </tspan>
<tspan x="10" y="1578">  │ ├─┬ babel-plugin-transform-es2015-unicode-regex@6.24.1 </tspan>
<tspan x="10" y="1594">  │ │ └─┬ regexpu-core@2.0.0 </tspan>
<tspan x="10" y="1610">  │ │   ├── regenerate@1.3.2 </tspan>
<tspan x="10" y="1626">  │ │   ├── regjsgen@0.2.0 </tspan>
<tspan x="10" y="1642">  │ │   └─┬ regjsparser@0.1.5 </tspan>
<tspan x="10" y="1658">  │ │     └── jsesc@0.5.0 </tspan>
<tspan x="10" y="1674">  │ └─┬ babel-plugin-transform-regenerator@6.24.1 </tspan>
<tspan x="10" y="1690">  │   └── regenerator-transform@0.9.11 </tspan>
<tspan x="10" y="1706">  ├─┬ babel-preset-react@6.24.1 </tspan>
<tspan x="10" y="1722">  │ ├── babel-plugin-syntax-jsx@6.18.0 </tspan>
<tspan x="10" y="1738">  │ ├── babel-plugin-transform-react-display-name@6.23.0 </tspan>
<tspan x="10" y="1754">  │ ├─┬ babel-plugin-transform-react-jsx@6.24.1 </tspan>
<tspan x="10" y="1770">  │ │ └── babel-helper-builder-react-jsx@6.24.1 </tspan>
<tspan x="10" y="1786">  │ ├── babel-plugin-transform-react-jsx-self@6.22.0 </tspan>
<tspan x="10" y="1802">  │ ├── babel-plugin-transform-react-jsx-source@6.22.0 </tspan>
<tspan x="10" y="1818">  │ └─┬ babel-preset-flow@6.23.0 </tspan>
<tspan x="10" y="1834">  │   └─┬ babel-plugin-transform-flow-strip-types@6.22.0 </tspan>
<tspan x="10" y="1850">  │     └── babel-plugin-syntax-flow@6.18.0 </tspan>
<tspan x="10" y="1866">  ├─┬ babel-preset-react-hmre@1.1.1 </tspan>
<tspan x="10" y="1882">  │ ├── babel-plugin-react-transform@2.0.2 </tspan>
<tspan x="10" y="1898">  │ ├── react-transform-catch-errors@1.0.2 </tspan>
<tspan x="10" y="1914">  │ ├─┬ react-transform-hmr@1.0.4 </tspan>
<tspan x="10" y="1930">  │ │ ├─┬ global@4.3.2 </tspan>
<tspan x="10" y="1946">  │ │ │ ├─┬ min-document@2.19.0 </tspan>
<tspan x="10" y="1962">  │ │ │ │ └── dom-walk@0.1.1 </tspan>
<tspan x="10" y="1978">  │ │ │ └── process@0.5.2 </tspan>
<tspan x="10" y="1994">  │ │ └─┬ react-proxy@1.1.8 </tspan>
<tspan x="10" y="2010">  │ │   └── react-deep-force-update@1.0.1 </tspan>
<tspan x="10" y="2026">  │ └─┬ redbox-react@1.3.6 </tspan>
<tspan x="10" y="2042">  │   └─┬ error-stack-parser@1.3.6 </tspan>
<tspan x="10" y="2058">  │     └── stackframe@0.3.1 </tspan>
<tspan x="10" y="2074">  ├─┬ babel-preset-stage-1@6.24.1 </tspan>
<tspan x="10" y="2090">  │ ├─┬ babel-plugin-transform-class-constructor-call@6.24.1 </tspan>
<tspan x="10" y="2106">  │ │ └── babel-plugin-syntax-class-constructor-call@6.18.0 </tspan>
<tspan x="10" y="2122">  │ ├─┬ babel-plugin-transform-export-extensions@6.22.0 </tspan>
<tspan x="10" y="2138">  │ │ └── babel-plugin-syntax-export-extensions@6.13.0 </tspan>
<tspan x="10" y="2154">  │ └─┬ babel-preset-stage-2@6.24.1 </tspan>
<tspan x="10" y="2170">  │   ├── babel-plugin-syntax-dynamic-import@6.18.0 </tspan>
<tspan x="10" y="2186">  │   ├─┬ babel-plugin-transform-class-properties@6.24.1 </tspan>
<tspan x="10" y="2202">  │   │ └── babel-plugin-syntax-class-properties@6.13.0 </tspan>
<tspan x="10" y="2218">  │   ├─┬ babel-plugin-transform-decorators@6.24.1 </tspan>
<tspan x="10" y="2234">  │   │ ├─┬ babel-helper-explode-class@6.24.1 </tspan>
<tspan x="10" y="2250">  │   │ │ └── babel-helper-bindify-decorators@6.24.1 </tspan>
<tspan x="10" y="2266">  │   │ └── babel-plugin-syntax-decorators@6.13.0 </tspan>
<tspan x="10" y="2282">  │   └─┬ babel-preset-stage-3@6.24.1 </tspan>
<tspan x="10" y="2298">  │     ├── babel-plugin-syntax-trailing-function-commas@6.22.0 </tspan>
<tspan x="10" y="2314">  │     ├─┬ babel-plugin-transform-async-generator-functions@6.24.1 </tspan>
<tspan x="10" y="2330">  │     │ ├── babel-helper-remap-async-to-generator@6.24.1 </tspan>
<tspan x="10" y="2346">  │     │ └── babel-plugin-syntax-async-generators@6.13.0 </tspan>
<tspan x="10" y="2362">  │     ├─┬ babel-plugin-transform-async-to-generator@6.24.1 </tspan>
<tspan x="10" y="2378">  │     │ └── babel-plugin-syntax-async-functions@6.13.0 </tspan>
<tspan x="10" y="2394">  │     ├─┬ babel-plugin-transform-exponentiation-operator@6.24.1 </tspan>
<tspan x="10" y="2410">  │     │ ├─┬ babel-helper-builder-binary-assignment-operator-visitor@6.24.1 </tspan>
<tspan x="10" y="2426">  │     │ │ └── babel-helper-explode-assignable-expression@6.24.1 </tspan>
<tspan x="10" y="2442">  │     │ └── babel-plugin-syntax-exponentiation-operator@6.13.0 </tspan>
<tspan x="10" y="2458">  │     └─┬ babel-plugin-transform-object-rest-spread@6.23.0 </tspan>
<tspan x="10" y="2474">  │       └── babel-plugin-syntax-object-rest-spread@6.13.0 </tspan>
<tspan x="10" y="2490">  ├── babel-runtime@6.23.0 </tspan>
<tspan x="10" y="2506">  ├─┬ chalk@1.1.3 </tspan>
<tspan x="10" y="2522">  │ ├── ansi-styles@2.2.1 </tspan>
<tspan x="10" y="2538">  │ ├── escape-string-regexp@1.0.5 </tspan>
<tspan x="10" y="2554">  │ ├─┬ has-ansi@2.0.0 </tspan>
<tspan x="10" y="2570">  │ │ └── ansi-regex@2.1.1 </tspan>
<tspan x="10" y="2586">  │ ├── strip-ansi@3.0.1 </tspan>
<tspan x="10" y="2602">  │ └── supports-color@2.0.0 </tspan>
<tspan x="10" y="2618">  ├─┬ cheerio@0.22.0 </tspan>
<tspan x="10" y="2634">  │ ├─┬ css-select@1.2.0 </tspan>
<tspan x="10" y="2650">  │ │ ├── boolbase@1.0.0 </tspan>
<tspan x="10" y="2666">  │ │ ├── css-what@2.1.0 </tspan>
<tspan x="10" y="2682">  │ │ ├── domutils@1.5.1 </tspan>
<tspan x="10" y="2698">  │ │ └── nth-check@1.0.1 </tspan>
<tspan x="10" y="2714">  │ ├─┬ dom-serializer@0.1.0 </tspan>
<tspan x="10" y="2730">  │ │ └── domelementtype@1.1.3 </tspan>
<tspan x="10" y="2746">  │ ├── entities@1.1.1 </tspan>
<tspan x="10" y="2762">  │ ├─┬ htmlparser2@3.9.2 </tspan>
<tspan x="10" y="2778">  │ │ ├── domelementtype@1.3.0 </tspan>
<tspan x="10" y="2794">  │ │ ├── domhandler@2.3.0 </tspan>
<tspan x="10" y="2810">  │ │ └── inherits@2.0.3 </tspan>
<tspan x="10" y="2826">  │ ├── lodash.assignin@4.2.0 </tspan>
<tspan x="10" y="2842">  │ ├── lodash.bind@4.2.1 </tspan>
<tspan x="10" y="2858">  │ ├── lodash.defaults@4.2.0 </tspan>
<tspan x="10" y="2874">  │ ├── lodash.filter@4.6.0 </tspan>
<tspan x="10" y="2890">  │ ├── lodash.flatten@4.4.0 </tspan>
<tspan x="10" y="2906">  │ ├── lodash.foreach@4.5.0 </tspan>
<tspan x="10" y="2922">  │ ├── lodash.map@4.6.0 </tspan>
<tspan x="10" y="2938">  │ ├── lodash.merge@4.6.0 </tspan>
<tspan x="10" y="2954">  │ ├── lodash.pick@4.4.0 </tspan>
<tspan x="10" y="2970">  │ ├── lodash.reduce@4.6.0 </tspan>
<tspan x="10" y="2986">  │ ├── lodash.reject@4.6.0 </tspan>
<tspan x="10" y="3002">  │ └── lodash.some@4.6.0 </tspan>
<tspan x="10" y="3018">  ├── command-exists@1.2.2 </tspan>
<tspan x="10" y="3034">  ├─┬ css-loader@0.26.4 </tspan>
<tspan x="10" y="3050">  │ ├─┬ css-selector-tokenizer@0.7.0 </tspan>
<tspan x="10" y="3066">  │ │ ├── cssesc@0.1.0 </tspan>
<tspan x="10" y="3082">  │ │ ├── fastparse@1.1.1 </tspan>
<tspan x="10" y="3098">  │ │ └── regexpu-core@1.0.0 </tspan>
<tspan x="10" y="3114">  │ ├─┬ cssnano@3.10.0 </tspan>
<tspan x="10" y="3130">  │ │ ├── defined@1.0.0 </tspan>
<tspan x="10" y="3146">  │ │ ├─┬ has@1.0.1 </tspan>
<tspan x="10" y="3162">  │ │ │ └── function-bind@1.1.0 </tspan>
<tspan x="10" y="3178">  │ │ ├─┬ postcss-calc@5.3.1 </tspan>
<tspan x="10" y="3194">  │ │ │ ├── postcss-message-helpers@2.0.0 </tspan>
<tspan x="10" y="3210">  │ │ │ └─┬ reduce-css-calc@1.3.0 </tspan>
<tspan x="10" y="3226">  │ │ │   ├── math-expression-evaluator@1.2.16 </tspan>
<tspan x="10" y="3242">  │ │ │   └── reduce-function-call@1.0.2 </tspan>
<tspan x="10" y="3258">  │ │ ├─┬ postcss-colormin@2.2.2 </tspan>
<tspan x="10" y="3274">  │ │ │ └─┬ colormin@1.1.2 </tspan>
<tspan x="10" y="3290">  │ │ │   ├─┬ color@0.11.4 </tspan>
<tspan x="10" y="3306">  │ │ │   │ ├── clone@1.0.2 </tspan>
<tspan x="10" y="3322">  │ │ │   │ ├─┬ color-convert@1.9.0 </tspan>
<tspan x="10" y="3338">  │ │ │   │ │ └── color-name@1.1.2 </tspan>
<tspan x="10" y="3354">  │ │ │   │ └── color-string@0.3.0 </tspan>
<tspan x="10" y="3370">  │ │ │   └── css-color-names@0.0.4 </tspan>
<tspan x="10" y="3386">  │ │ ├── postcss-convert-values@2.6.1 </tspan>
<tspan x="10" y="3402">  │ │ ├── postcss-discard-comments@2.0.4 </tspan>
<tspan x="10" y="3418">  │ │ ├── postcss-discard-duplicates@2.1.0 </tspan>
<tspan x="10" y="3434">  │ │ ├── postcss-discard-empty@2.1.0 </tspan>
<tspan x="10" y="3450">  │ │ ├── postcss-discard-overridden@0.1.1 </tspan>
<tspan x="10" y="3466">  │ │ ├─┬ postcss-discard-unused@2.2.3 </tspan>
<tspan x="10" y="3482">  │ │ │ └── uniqs@2.0.0 </tspan>
<tspan x="10" y="3498">  │ │ ├─┬ postcss-filter-plugins@2.0.2 </tspan>
<tspan x="10" y="3514">  │ │ │ └─┬ uniqid@4.1.1 </tspan>
<tspan x="10" y="3530">  │ │ │   └── macaddress@0.2.8 </tspan>
<tspan x="10" y="3546">  │ │ ├── postcss-merge-idents@2.1.7 </tspan>
<tspan x="10" y="3562">  │ │ ├── postcss-merge-longhand@2.0.2 </tspan>
<tspan x="10" y="3578">  │ │ ├─┬ postcss-merge-rules@2.1.2 </tspan>
<tspan x="10" y="3594">  │ │ │ ├─┬ caniuse-api@1.6.1 </tspan>
<tspan x="10" y="3610">  │ │ │ │ ├── lodash.memoize@4.1.2 </tspan>
<tspan x="10" y="3626">  │ │ │ │ └── lodash.uniq@4.5.0 </tspan>
<tspan x="10" y="3642">  │ │ │ ├─┬ postcss-selector-parser@2.2.3 </tspan>
<tspan x="10" y="3658">  │ │ │ │ ├── flatten@1.0.2 </tspan>
<tspan x="10" y="3674">  │ │ │ │ ├── indexes-of@1.0.1 </tspan>
<tspan x="10" y="3690">  │ │ │ │ └── uniq@1.0.1 </tspan>
<tspan x="10" y="3706">  │ │ │ └── vendors@1.0.1 </tspan>
<tspan x="10" y="3722">  │ │ ├── postcss-minify-font-values@1.0.5 </tspan>
<tspan x="10" y="3738">  │ │ ├── postcss-minify-gradients@1.0.5 </tspan>
<tspan x="10" y="3754">  │ │ ├─┬ postcss-minify-params@1.2.2 </tspan>
<tspan x="10" y="3770">  │ │ │ └── alphanum-sort@1.0.2 </tspan>
<tspan x="10" y="3786">  │ │ ├── postcss-minify-selectors@2.1.1 </tspan>
<tspan x="10" y="3802">  │ │ ├── postcss-normalize-charset@1.1.1 </tspan>
<tspan x="10" y="3818">  │ │ ├─┬ postcss-normalize-url@3.0.8 </tspan>
<tspan x="10" y="3834">  │ │ │ ├── is-absolute-url@2.1.0 </tspan>
<tspan x="10" y="3850">  │ │ │ └─┬ normalize-url@1.9.1 </tspan>
<tspan x="10" y="3866">  │ │ │   ├── prepend-http@1.0.4 </tspan>
<tspan x="10" y="3882">  │ │ │   ├─┬ query-string@4.3.4 </tspan>
<tspan x="10" y="3898">  │ │ │   │ └── strict-uri-encode@1.1.0 </tspan>
<tspan x="10" y="3914">  │ │ │   └─┬ sort-keys@1.1.2 </tspan>
<tspan x="10" y="3930">  │ │ │     └── is-plain-obj@1.1.0 </tspan>
<tspan x="10" y="3946">  │ │ ├── postcss-ordered-values@2.2.3 </tspan>
<tspan x="10" y="3962">  │ │ ├── postcss-reduce-idents@2.4.0 </tspan>
<tspan x="10" y="3978">  │ │ ├── postcss-reduce-initial@1.0.1 </tspan>
<tspan x="10" y="3994">  │ │ ├── postcss-reduce-transforms@1.0.4 </tspan>
<tspan x="10" y="4010">  │ │ ├─┬ postcss-svgo@2.1.6 </tspan>
<tspan x="10" y="4026">  │ │ │ ├─┬ is-svg@2.1.0 </tspan>
<tspan x="10" y="4042">  │ │ │ │ └── html-comment-regex@1.1.1 </tspan>
<tspan x="10" y="4058">  │ │ │ └─┬ svgo@0.7.2 </tspan>
<tspan x="10" y="4074">  │ │ │   ├─┬ coa@1.0.1 </tspan>
<tspan x="10" y="4090">  │ │ │   │ └── q@1.5.0 </tspan>
<tspan x="10" y="4106">  │ │ │   ├── colors@1.1.2 </tspan>
<tspan x="10" y="4122">  │ │ │   ├─┬ csso@2.3.2 </tspan>
<tspan x="10" y="4138">  │ │ │   │ └── clap@1.1.3 </tspan>
<tspan x="10" y="4154">  │ │ │   ├── sax@1.2.2 </tspan>
<tspan x="10" y="4170">  │ │ │   └── whet.extend@0.9.9 </tspan>
<tspan x="10" y="4186">  │ │ ├── postcss-unique-selectors@2.0.2 </tspan>
<tspan x="10" y="4202">  │ │ └── postcss-zindex@2.2.0 </tspan>
<tspan x="10" y="4218">  │ ├── loader-utils@1.1.0 </tspan>
<tspan x="10" y="4234">  │ ├── lodash.camelcase@4.3.0 </tspan>
<tspan x="10" y="4250">  │ ├── postcss-modules-extract-imports@1.0.1 </tspan>
<tspan x="10" y="4266">  │ ├─┬ postcss-modules-local-by-default@1.1.1 </tspan>
<tspan x="10" y="4282">  │ │ └─┬ css-selector-tokenizer@0.6.0 </tspan>
<tspan x="10" y="4298">  │ │   └── regexpu-core@1.0.0 </tspan>
<tspan x="10" y="4314">  │ ├─┬ postcss-modules-scope@1.0.2 </tspan>
<tspan x="10" y="4330">  │ │ └─┬ css-selector-tokenizer@0.6.0 </tspan>
<tspan x="10" y="4346">  │ │   └── regexpu-core@1.0.0 </tspan>
<tspan x="10" y="4362">  │ ├─┬ postcss-modules-values@1.2.2 </tspan>
<tspan x="10" y="4378">  │ │ └── icss-replace-symbols@1.0.2 </tspan>
<tspan x="10" y="4394">  │ └── source-list-map@0.1.8 </tspan>
<tspan x="10" y="4410">  ├── file-loader@0.9.0 </tspan>
<tspan x="10" y="4426">  ├─┬ glob-expand@0.2.1 </tspan>
<tspan x="10" y="4442">  │ ├─┬ glob@4.5.3 </tspan>
<tspan x="10" y="4458">  │ │ ├─┬ inflight@1.0.6 </tspan>
<tspan x="10" y="4474">  │ │ │ └── wrappy@1.0.2 </tspan>
<tspan x="10" y="4490">  │ │ ├── minimatch@2.0.10 </tspan>
<tspan x="10" y="4506">  │ │ └── once@1.4.0 </tspan>
<tspan x="10" y="4522">  │ └── lodash@4.13.1 </tspan>
<tspan x="10" y="4538">  ├─┬ koa@1.4.0 </tspan>
<tspan x="10" y="4554">  │ ├─┬ accepts@1.3.3 </tspan>
<tspan x="10" y="4570">  │ │ └── negotiator@0.6.1 </tspan>
<tspan x="10" y="4586">  │ ├── co@4.6.0 </tspan>
<tspan x="10" y="4602">  │ ├─┬ composition@2.3.0 </tspan>
<tspan x="10" y="4618">  │ │ └── any-promise@1.3.0 </tspan>
<tspan x="10" y="4634">  │ ├── content-disposition@0.5.2 </tspan>
<tspan x="10" y="4650">  │ ├── content-type@1.0.2 </tspan>
<tspan x="10" y="4666">  │ ├─┬ cookies@0.7.0 </tspan>
<tspan x="10" y="4682">  │ │ ├── depd@1.1.0 </tspan>
<tspan x="10" y="4698">  │ │ └── keygrip@1.0.1 </tspan>
<tspan x="10" y="4714">  │ ├── delegates@1.0.0 </tspan>
<tspan x="10" y="4730">  │ ├── destroy@1.0.4 </tspan>
<tspan x="10" y="4746">  │ ├── error-inject@1.0.0 </tspan>
<tspan x="10" y="4762">  │ ├── escape-html@1.0.3 </tspan>
<tspan x="10" y="4778">  │ ├── fresh@0.3.0 </tspan>
<tspan x="10" y="4794">  │ ├─┬ http-assert@1.2.0 </tspan>
<tspan x="10" y="4810">  │ │ ├── deep-equal@1.0.1 </tspan>
<tspan x="10" y="4826">  │ │ └─┬ http-errors@1.4.0 </tspan>
<tspan x="10" y="4842">  │ │   └── inherits@2.0.1 </tspan>
<tspan x="10" y="4858">  │ ├─┬ http-errors@1.6.1 </tspan>
<tspan x="10" y="4874">  │ │ └── setprototypeof@1.0.3 </tspan>
<tspan x="10" y="4890">  │ ├── koa-is-json@1.0.0 </tspan>
<tspan x="10" y="4906">  │ ├─┬ mime-types@2.1.15 </tspan>
<tspan x="10" y="4922">  │ │ └── mime-db@1.27.0 </tspan>
<tspan x="10" y="4938">  │ ├─┬ on-finished@2.3.0 </tspan>
<tspan x="10" y="4954">  │ │ └── ee-first@1.1.1 </tspan>
<tspan x="10" y="4970">  │ ├── only@0.0.2 </tspan>
<tspan x="10" y="4986">  │ ├── parseurl@1.3.1 </tspan>
<tspan x="10" y="5002">  │ ├── statuses@1.3.1 </tspan>
<tspan x="10" y="5018">  │ ├─┬ type-is@1.6.15 </tspan>
<tspan x="10" y="5034">  │ │ └── media-typer@0.3.0 </tspan>
<tspan x="10" y="5050">  │ └── vary@1.1.1 </tspan>
<tspan x="10" y="5066">  ├── koa-compose@2.5.1 </tspan>
<tspan x="10" y="5082">  ├─┬ koa-logger@1.3.1 </tspan>
<tspan x="10" y="5098">  │ ├── bytes@1.0.0 </tspan>
<tspan x="10" y="5114">  │ ├── humanize-number@0.0.2 </tspan>
<tspan x="10" y="5130">  │ └── passthrough-counter@1.0.0 </tspan>
<tspan x="10" y="5146">  ├─┬ koa-static@2.1.0 </tspan>
<tspan x="10" y="5162">  │ └─┬ koa-send@3.3.0 </tspan>
<tspan x="10" y="5178">  │   ├─┬ mz@2.6.0 </tspan>
<tspan x="10" y="5194">  │   │ └─┬ thenify-all@1.6.0 </tspan>
<tspan x="10" y="5210">  │   │   └── thenify@3.2.1 </tspan>
<tspan x="10" y="5226">  │   └─┬ resolve-path@1.3.3 </tspan>
<tspan x="10" y="5242">  │     └─┬ http-errors@1.5.1 </tspan>
<tspan x="10" y="5258">  │       └── setprototypeof@1.0.2 </tspan>
<tspan x="10" y="5274">  ├─┬ koa-webpack-dev-middleware@1.4.5 </tspan>
<tspan x="10" y="5290">  │ └─┬ webpack-dev-middleware@1.10.1 </tspan>
<tspan x="10" y="5306">  │   └── range-parser@1.2.0 </tspan>
<tspan x="10" y="5322">  ├─┬ koa-webpack-hot-middleware@1.0.3 </tspan>
<tspan x="10" y="5338">  │ └─┬ webpack-hot-middleware@2.18.0 </tspan>
<tspan x="10" y="5354">  │   ├── ansi-html@0.0.7 </tspan>
<tspan x="10" y="5370">  │   ├── html-entities@1.2.0 </tspan>
<tspan x="10" y="5386">  │   └── querystring@0.2.0 </tspan>
<tspan x="10" y="5402">  ├─┬ less@2.7.2 </tspan>
<tspan x="10" y="5418">  │ ├─┬ errno@0.1.4 </tspan>
<tspan x="10" y="5434">  │ │ └── prr@0.0.0 </tspan>
<tspan x="10" y="5450">  │ ├── graceful-fs@4.1.11 </tspan>
<tspan x="10" y="5466">  │ ├── image-size@0.5.1 </tspan>
<tspan x="10" y="5482">  │ ├── mime@1.3.4 </tspan>
<tspan x="10" y="5498">  │ ├─┬ promise@7.1.1 </tspan>
<tspan x="10" y="5514">  │ │ └── asap@2.0.5 </tspan>
<tspan x="10" y="5530">  │ └─┬ request@2.81.0 </tspan>
<tspan x="10" y="5546">  │   ├── aws-sign2@0.6.0 </tspan>
<tspan x="10" y="5562">  │   ├── aws4@1.6.0 </tspan>
<tspan x="10" y="5578">  │   ├── caseless@0.12.0 </tspan>
<tspan x="10" y="5594">  │   ├─┬ combined-stream@1.0.5 </tspan>
<tspan x="10" y="5610">  │   │ └── delayed-stream@1.0.0 </tspan>
<tspan x="10" y="5626">  │   ├── extend@3.0.0 </tspan>
<tspan x="10" y="5642">  │   ├── forever-agent@0.6.1 </tspan>
<tspan x="10" y="5658">  │   ├─┬ form-data@2.1.4 </tspan>
<tspan x="10" y="5674">  │   │ └── asynckit@0.4.0 </tspan>
<tspan x="10" y="5690">  │   ├─┬ har-validator@4.2.1 </tspan>
<tspan x="10" y="5706">  │   │ └── har-schema@1.0.5 </tspan>
<tspan x="10" y="5722">  │   ├─┬ hawk@3.1.3 </tspan>
<tspan x="10" y="5738">  │   │ ├── boom@2.10.1 </tspan>
<tspan x="10" y="5754">  │   │ ├── cryptiles@2.0.5 </tspan>
<tspan x="10" y="5770">  │   │ ├── hoek@2.16.3 </tspan>
<tspan x="10" y="5786">  │   │ └── sntp@1.0.9 </tspan>
<tspan x="10" y="5802">  │   ├─┬ http-signature@1.1.1 </tspan>
<tspan x="10" y="5818">  │   │ ├── assert-plus@0.2.0 </tspan>
<tspan x="10" y="5834">  │   │ ├─┬ jsprim@1.4.0 </tspan>
<tspan x="10" y="5850">  │   │ │ ├── assert-plus@1.0.0 </tspan>
<tspan x="10" y="5866">  │   │ │ ├── extsprintf@1.0.2 </tspan>
<tspan x="10" y="5882">  │   │ │ ├── json-schema@0.2.3 </tspan>
<tspan x="10" y="5898">  │   │ │ └── verror@1.3.6 </tspan>
<tspan x="10" y="5914">  │   │ └─┬ sshpk@1.13.0 </tspan>
<tspan x="10" y="5930">  │   │   ├── asn1@0.2.3 </tspan>
<tspan x="10" y="5946">  │   │   ├── assert-plus@1.0.0 </tspan>
<tspan x="10" y="5962">  │   │   ├── bcrypt-pbkdf@1.0.1 </tspan>
<tspan x="10" y="5978">  │   │   ├─┬ dashdash@1.14.1 </tspan>
<tspan x="10" y="5994">  │   │   │ └── assert-plus@1.0.0 </tspan>
<tspan x="10" y="6010">  │   │   ├── ecc-jsbn@0.1.1 </tspan>
<tspan x="10" y="6026">  │   │   ├─┬ getpass@0.1.6 </tspan>
<tspan x="10" y="6042">  │   │   │ └── assert-plus@1.0.0 </tspan>
<tspan x="10" y="6058">  │   │   ├── jodid25519@1.0.2 </tspan>
<tspan x="10" y="6074">  │   │   ├── jsbn@0.1.1 </tspan>
<tspan x="10" y="6090">  │   │   └── tweetnacl@0.14.5 </tspan>
<tspan x="10" y="6106">  │   ├── is-typedarray@1.0.0 </tspan>
<tspan x="10" y="6122">  │   ├── isstream@0.1.2 </tspan>
<tspan x="10" y="6138">  │   ├── json-stringify-safe@5.0.1 </tspan>
<tspan x="10" y="6154">  │   ├── oauth-sign@0.8.2 </tspan>
<tspan x="10" y="6170">  │   ├── performance-now@0.2.0 </tspan>
<tspan x="10" y="6186">  │   ├── qs@6.4.0 </tspan>
<tspan x="10" y="6202">  │   ├── safe-buffer@5.0.1 </tspan>
<tspan x="10" y="6218">  │   ├── stringstream@0.0.5 </tspan>
<tspan x="10" y="6234">  │   ├── tough-cookie@2.3.2 </tspan>
<tspan x="10" y="6250">  │   ├── tunnel-agent@0.6.0 </tspan>
<tspan x="10" y="6266">  │   └── uuid@3.0.1 </tspan>
<tspan x="10" y="6282">  ├── less-loader@2.2.3 </tspan>
<tspan x="10" y="6298">  ├── lodash@4.17.4 </tspan>
<tspan x="10" y="6314">  ├─┬ memory-fs@0.4.1 </tspan>
<tspan x="10" y="6330">  │ └─┬ readable-stream@2.2.9 </tspan>
<tspan x="10" y="6346">  │   ├── buffer-shims@1.0.0 </tspan>
<tspan x="10" y="6362">  │   ├── core-util-is@1.0.2 </tspan>
<tspan x="10" y="6378">  │   ├── isarray@1.0.0 </tspan>
<tspan x="10" y="6394">  │   ├── process-nextick-args@1.0.7 </tspan>
<tspan x="10" y="6410">  │   ├── string_decoder@1.0.0 </tspan>
<tspan x="10" y="6426">  │   └── util-deprecate@1.0.2 </tspan>
<tspan x="10" y="6442">  ├── ncp@2.0.0 </tspan>
<tspan x="10" y="6458">  ├─┬ node-sass@4.5.2 </tspan>
<tspan x="10" y="6474">  │ ├── async-foreach@0.1.3 </tspan>
<tspan x="10" y="6490">  │ ├─┬ cross-spawn@3.0.1 </tspan>
<tspan x="10" y="6506">  │ │ ├─┬ lru-cache@4.0.2 </tspan>
<tspan x="10" y="6522">  │ │ │ ├── pseudomap@1.0.2 </tspan>
<tspan x="10" y="6538">  │ │ │ └── yallist@2.1.2 </tspan>
<tspan x="10" y="6554">  │ │ └─┬ which@1.2.14 </tspan>
<tspan x="10" y="6570">  │ │   └── isexe@2.0.0 </tspan>
<tspan x="10" y="6586">  │ ├─┬ gaze@1.1.2 </tspan>
<tspan x="10" y="6602">  │ │ └─┬ globule@1.1.0 </tspan>
<tspan x="10" y="6618">  │ │   ├── glob@7.1.1 </tspan>
<tspan x="10" y="6634">  │ │   └── lodash@4.16.6 </tspan>
<tspan x="10" y="6650">  │ ├── get-stdin@4.0.1 </tspan>
<tspan x="10" y="6666">  │ ├─┬ glob@7.1.1 </tspan>
<tspan x="10" y="6682">  │ │ └── fs.realpath@1.0.0 </tspan>
<tspan x="10" y="6698">  │ ├── in-publish@2.0.0 </tspan>
<tspan x="10" y="6714">  │ ├── lodash.assign@4.2.0 </tspan>
<tspan x="10" y="6730">  │ ├── lodash.clonedeep@4.5.0 </tspan>
<tspan x="10" y="6746">  │ ├── lodash.mergewith@4.6.0 </tspan>
<tspan x="10" y="6762">  │ ├─┬ meow@3.7.0 </tspan>
<tspan x="10" y="6778">  │ │ ├─┬ camelcase-keys@2.1.0 </tspan>
<tspan x="10" y="6794">  │ │ │ └── camelcase@2.1.1 </tspan>
<tspan x="10" y="6810">  │ │ ├─┬ loud-rejection@1.6.0 </tspan>
<tspan x="10" y="6826">  │ │ │ ├─┬ currently-unhandled@0.4.1 </tspan>
<tspan x="10" y="6842">  │ │ │ │ └── array-find-index@1.0.2 </tspan>
<tspan x="10" y="6858">  │ │ │ └── signal-exit@3.0.2 </tspan>
<tspan x="10" y="6874">  │ │ ├── map-obj@1.0.1 </tspan>
<tspan x="10" y="6890">  │ │ ├── minimist@1.2.0 </tspan>
<tspan x="10" y="6906">  │ │ ├─┬ normalize-package-data@2.3.6 </tspan>
<tspan x="10" y="6922">  │ │ │ ├── hosted-git-info@2.4.2 </tspan>
<tspan x="10" y="6938">  │ │ │ ├─┬ is-builtin-module@1.0.0 </tspan>
<tspan x="10" y="6954">  │ │ │ │ └── builtin-modules@1.1.1 </tspan>
<tspan x="10" y="6970">  │ │ │ └─┬ validate-npm-package-license@3.0.1 </tspan>
<tspan x="10" y="6986">  │ │ │   ├─┬ spdx-correct@1.0.2 </tspan>
<tspan x="10" y="7002">  │ │ │   │ └── spdx-license-ids@1.2.2 </tspan>
<tspan x="10" y="7018">  │ │ │   └── spdx-expression-parse@1.0.4 </tspan>
<tspan x="10" y="7034">  │ │ ├─┬ redent@1.0.0 </tspan>
<tspan x="10" y="7050">  │ │ │ ├── indent-string@2.1.0 </tspan>
<tspan x="10" y="7066">  │ │ │ └── strip-indent@1.0.1 </tspan>
<tspan x="10" y="7082">  │ │ └── trim-newlines@1.0.0 </tspan>
<tspan x="10" y="7098">  │ ├── nan@2.6.2 </tspan>
<tspan x="10" y="7114">  │ ├─┬ node-gyp@3.6.0 </tspan>
<tspan x="10" y="7130">  │ │ ├── fstream@1.0.11 </tspan>
<tspan x="10" y="7146">  │ │ ├── glob@7.1.1 </tspan>
<tspan x="10" y="7162">  │ │ ├─┬ nopt@3.0.6 </tspan>
<tspan x="10" y="7178">  │ │ │ └── abbrev@1.1.0 </tspan>
<tspan x="10" y="7194">  │ │ ├── osenv@0.1.4 </tspan>
<tspan x="10" y="7210">  │ │ ├─┬ rimraf@2.6.1 </tspan>
<tspan x="10" y="7226">  │ │ │ └── glob@7.1.1 </tspan>
<tspan x="10" y="7242">  │ │ ├── semver@5.3.0 </tspan>
<tspan x="10" y="7258">  │ │ └─┬ tar@2.2.1 </tspan>
<tspan x="10" y="7274">  │ │   └── block-stream@0.0.9 </tspan>
<tspan x="10" y="7290">  │ ├─┬ npmlog@4.0.2 </tspan>
<tspan x="10" y="7306">  │ │ ├── are-we-there-yet@1.1.2 </tspan>
<tspan x="10" y="7322">  │ │ ├── console-control-strings@1.1.0 </tspan>
<tspan x="10" y="7338">  │ │ └─┬ gauge@2.7.3 </tspan>
<tspan x="10" y="7354">  │ │   ├── aproba@1.1.1 </tspan>
<tspan x="10" y="7370">  │ │   ├── has-unicode@2.0.1 </tspan>
<tspan x="10" y="7386">  │ │   └── wide-align@1.1.0 </tspan>
<tspan x="10" y="7402">  │ ├─┬ sass-graph@2.1.2 </tspan>
<tspan x="10" y="7418">  │ │ ├── glob@7.1.1 </tspan>
<tspan x="10" y="7434">  │ │ └─┬ yargs@4.8.1 </tspan>
<tspan x="10" y="7450">  │ │   ├── window-size@0.2.0 </tspan>
<tspan x="10" y="7466">  │ │   └─┬ yargs-parser@2.4.1 </tspan>
<tspan x="10" y="7482">  │ │     └── camelcase@3.0.0 </tspan>
<tspan x="10" y="7498">  │ └── stdout-stream@1.4.0 </tspan>
<tspan x="10" y="7514">  ├─┬ opn@4.0.2 </tspan>
<tspan x="10" y="7530">  │ └─┬ pinkie-promise@2.0.1 </tspan>
<tspan x="10" y="7546">  │   └── pinkie@2.0.4 </tspan>
<tspan x="10" y="7562">  ├─┬ postcss-loader@1.3.3 </tspan>
<tspan x="10" y="7578">  │ ├── loader-utils@1.1.0 </tspan>
<tspan x="10" y="7594">  │ └─┬ postcss-load-config@1.2.0 </tspan>
<tspan x="10" y="7610">  │   ├─┬ cosmiconfig@2.1.1 </tspan>
<tspan x="10" y="7626">  │   │ ├─┬ js-yaml@3.7.0 </tspan>
<tspan x="10" y="7642">  │   │ │ ├─┬ argparse@1.0.9 </tspan>
<tspan x="10" y="7658">  │   │ │ │ └── sprintf-js@1.0.3 </tspan>
<tspan x="10" y="7674">  │   │ │ └── esprima@2.7.3 </tspan>
<tspan x="10" y="7690">  │   │ ├── minimist@1.2.0 </tspan>
<tspan x="10" y="7706">  │   │ ├─┬ parse-json@2.2.0 </tspan>
<tspan x="10" y="7722">  │   │ │ └─┬ error-ex@1.3.1 </tspan>
<tspan x="10" y="7738">  │   │ │   └── is-arrayish@0.2.1 </tspan>
<tspan x="10" y="7754">  │   │ └── require-from-string@1.2.1 </tspan>
<tspan x="10" y="7770">  │   ├── postcss-load-options@1.2.0 </tspan>
<tspan x="10" y="7786">  │   └── postcss-load-plugins@2.3.0 </tspan>
<tspan x="10" y="7802">  ├─┬ react@15.5.4 </tspan>
<tspan x="10" y="7818">  │ ├─┬ fbjs@0.8.12 </tspan>
<tspan x="10" y="7834">  │ │ ├── core-js@1.2.7 </tspan>
<tspan x="10" y="7850">  │ │ ├─┬ isomorphic-fetch@2.2.1 </tspan>
<tspan x="10" y="7866">  │ │ │ ├─┬ node-fetch@1.6.3 </tspan>
<tspan x="10" y="7882">  │ │ │ │ ├─┬ encoding@0.1.12 </tspan>
<tspan x="10" y="7898">  │ │ │ │ │ └── iconv-lite@0.4.15 </tspan>
<tspan x="10" y="7914">  │ │ │ │ └── is-stream@1.1.0 </tspan>
<tspan x="10" y="7930">  │ │ │ └── whatwg-fetch@2.0.3 </tspan>
<tspan x="10" y="7946">  │ │ ├── setimmediate@1.0.5 </tspan>
<tspan x="10" y="7962">  │ │ └── ua-parser-js@0.7.12 </tspan>
<tspan x="10" y="7978">  │ ├── loose-envify@1.3.1 </tspan>
<tspan x="10" y="7994">  │ └── prop-types@15.5.8 </tspan>
<tspan x="10" y="8010">  ├── react-dom@15.5.4 </tspan>
<tspan x="10" y="8026">  ├─┬ sass-loader@4.1.1 </tspan>
<tspan x="10" y="8042">  │ └── async@2.3.0 </tspan>
<tspan x="10" y="8058">  ├─┬ style-loader@0.13.2 </tspan>
<tspan x="10" y="8074">  │ └── loader-utils@1.1.0 </tspan>
<tspan x="10" y="8090">  ├─┬ url-loader@0.5.8 </tspan>
<tspan x="10" y="8106">  │ └── loader-utils@1.1.0 </tspan>
<tspan x="10" y="8122">  ├─┬ webpack@2.4.1 </tspan>
<tspan x="10" y="8138">  │ ├── acorn@5.0.3 </tspan>
<tspan x="10" y="8154">  │ ├─┬ acorn-dynamic-import@2.0.2 </tspan>
<tspan x="10" y="8170">  │ │ └── acorn@4.0.11 </tspan>
<tspan x="10" y="8186">  │ ├─┬ ajv@4.11.7 </tspan>
<tspan x="10" y="8202">  │ │ └─┬ json-stable-stringify@1.0.1 </tspan>
<tspan x="10" y="8218">  │ │   └── jsonify@0.0.0 </tspan>
<tspan x="10" y="8234">  │ ├── ajv-keywords@1.5.1 </tspan>
<tspan x="10" y="8250">  │ ├── enhanced-resolve@3.1.0 </tspan>
<tspan x="10" y="8266">  │ ├── interpret@1.0.3 </tspan>
<tspan x="10" y="8282">  │ ├── json-loader@0.5.4 </tspan>
<tspan x="10" y="8298">  │ ├── loader-runner@2.3.0 </tspan>
<tspan x="10" y="8314">  │ ├─┬ node-libs-browser@2.0.0 </tspan>
<tspan x="10" y="8330">  │ │ ├── assert@1.4.1 </tspan>
<tspan x="10" y="8346">  │ │ ├─┬ browserify-zlib@0.1.4 </tspan>
<tspan x="10" y="8362">  │ │ │ └── pako@0.2.9 </tspan>
<tspan x="10" y="8378">  │ │ ├─┬ buffer@4.9.1 </tspan>
<tspan x="10" y="8394">  │ │ │ ├── base64-js@1.2.0 </tspan>
<tspan x="10" y="8410">  │ │ │ └── ieee754@1.1.8 </tspan>
<tspan x="10" y="8426">  │ │ ├─┬ console-browserify@1.1.0 </tspan>
<tspan x="10" y="8442">  │ │ │ └── date-now@0.1.4 </tspan>
<tspan x="10" y="8458">  │ │ ├── constants-browserify@1.0.0 </tspan>
<tspan x="10" y="8474">  │ │ ├─┬ crypto-browserify@3.11.0 </tspan>
<tspan x="10" y="8490">  │ │ │ ├─┬ browserify-cipher@1.0.0 </tspan>
<tspan x="10" y="8506">  │ │ │ │ ├─┬ browserify-aes@1.0.6 </tspan>
<tspan x="10" y="8522">  │ │ │ │ │ └── buffer-xor@1.0.3 </tspan>
<tspan x="10" y="8538">  │ │ │ │ ├─┬ browserify-des@1.0.0 </tspan>
<tspan x="10" y="8554">  │ │ │ │ │ └── des.js@1.0.0 </tspan>
<tspan x="10" y="8570">  │ │ │ │ └── evp_bytestokey@1.0.0 </tspan>
<tspan x="10" y="8586">  │ │ │ ├─┬ browserify-sign@4.0.4 </tspan>
<tspan x="10" y="8602">  │ │ │ │ ├── bn.js@4.11.6 </tspan>
<tspan x="10" y="8618">  │ │ │ │ ├── browserify-rsa@4.0.1 </tspan>
<tspan x="10" y="8634">  │ │ │ │ ├─┬ elliptic@6.4.0 </tspan>
<tspan x="10" y="8650">  │ │ │ │ │ ├── brorand@1.1.0 </tspan>
<tspan x="10" y="8666">  │ │ │ │ │ ├── hash.js@1.0.3 </tspan>
<tspan x="10" y="8682">  │ │ │ │ │ ├── hmac-drbg@1.0.1 </tspan>
<tspan x="10" y="8698">  │ │ │ │ │ ├── minimalistic-assert@1.0.0 </tspan>
<tspan x="10" y="8714">  │ │ │ │ │ └── minimalistic-crypto-utils@1.0.1 </tspan>
<tspan x="10" y="8730">  │ │ │ │ └─┬ parse-asn1@5.1.0 </tspan>
<tspan x="10" y="8746">  │ │ │ │   └── asn1.js@4.9.1 </tspan>
<tspan x="10" y="8762">  │ │ │ ├── create-ecdh@4.0.0 </tspan>
<tspan x="10" y="8778">  │ │ │ ├─┬ create-hash@1.1.2 </tspan>
<tspan x="10" y="8794">  │ │ │ │ ├── cipher-base@1.0.3 </tspan>
<tspan x="10" y="8810">  │ │ │ │ ├── ripemd160@1.0.1 </tspan>
<tspan x="10" y="8826">  │ │ │ │ └── sha.js@2.4.8 </tspan>
<tspan x="10" y="8842">  │ │ │ ├── create-hmac@1.1.4 </tspan>
<tspan x="10" y="8858">  │ │ │ ├─┬ diffie-hellman@5.0.2 </tspan>
<tspan x="10" y="8874">  │ │ │ │ └── miller-rabin@4.0.0 </tspan>
<tspan x="10" y="8890">  │ │ │ ├── pbkdf2@3.0.9 </tspan>
<tspan x="10" y="8906">  │ │ │ ├── public-encrypt@4.0.0 </tspan>
<tspan x="10" y="8922">  │ │ │ └── randombytes@2.0.3 </tspan>
<tspan x="10" y="8938">  │ │ ├── domain-browser@1.1.7 </tspan>
<tspan x="10" y="8954">  │ │ ├── events@1.1.1 </tspan>
<tspan x="10" y="8970">  │ │ ├── https-browserify@0.0.1 </tspan>
<tspan x="10" y="8986">  │ │ ├── os-browserify@0.2.1 </tspan>
<tspan x="10" y="9002">  │ │ ├── path-browserify@0.0.0 </tspan>
<tspan x="10" y="9018">  │ │ ├── process@0.11.9 </tspan>
<tspan x="10" y="9034">  │ │ ├── punycode@1.4.1 </tspan>
<tspan x="10" y="9050">  │ │ ├── querystring-es3@0.2.1 </tspan>
<tspan x="10" y="9066">  │ │ ├── stream-browserify@2.0.1 </tspan>
<tspan x="10" y="9082">  │ │ ├─┬ stream-http@2.7.0 </tspan>
<tspan x="10" y="9098">  │ │ │ ├── builtin-status-codes@3.0.0 </tspan>
<tspan x="10" y="9114">  │ │ │ ├── to-arraybuffer@1.0.1 </tspan>
<tspan x="10" y="9130">  │ │ │ └── xtend@4.0.1 </tspan>
<tspan x="10" y="9146">  │ │ ├── string_decoder@0.10.31 </tspan>
<tspan x="10" y="9162">  │ │ ├── timers-browserify@2.0.2 </tspan>
<tspan x="10" y="9178">  │ │ ├── tty-browserify@0.0.0 </tspan>
<tspan x="10" y="9194">  │ │ ├─┬ url@0.11.0 </tspan>
<tspan x="10" y="9210">  │ │ │ └── punycode@1.3.2 </tspan>
<tspan x="10" y="9226">  │ │ ├─┬ util@0.10.3 </tspan>
<tspan x="10" y="9242">  │ │ │ └── inherits@2.0.1 </tspan>
<tspan x="10" y="9258">  │ │ └─┬ vm-browserify@0.0.4 </tspan>
<tspan x="10" y="9274">  │ │   └── indexof@0.0.1 </tspan>
<tspan x="10" y="9290">  │ ├─┬ supports-color@3.2.3 </tspan>
<tspan x="10" y="9306">  │ │ └── has-flag@1.0.0 </tspan>
<tspan x="10" y="9322">  │ ├── tapable@0.2.6 </tspan>
<tspan x="10" y="9338">  │ ├─┬ uglify-js@2.8.22 </tspan>
<tspan x="10" y="9354">  │ │ ├── uglify-to-browserify@1.0.2 </tspan>
<tspan x="10" y="9370">  │ │ └─┬ yargs@3.10.0 </tspan>
<tspan x="10" y="9386">  │ │   ├── camelcase@1.2.1 </tspan>
<tspan x="10" y="9402">  │ │   ├─┬ cliui@2.1.0 </tspan>
<tspan x="10" y="9418">  │ │   │ ├─┬ center-align@0.1.3 </tspan>
<tspan x="10" y="9434">  │ │   │ │ ├─┬ align-text@0.1.4 </tspan>
<tspan x="10" y="9450">  │ │   │ │ │ ├── longest@1.0.1 </tspan>
<tspan x="10" y="9466">  │ │   │ │ │ └── repeat-string@1.6.1 </tspan>
<tspan x="10" y="9482">  │ │   │ │ └── lazy-cache@1.0.4 </tspan>
<tspan x="10" y="9498">  │ │   │ ├── right-align@0.1.3 </tspan>
<tspan x="10" y="9514">  │ │   │ └── wordwrap@0.0.2 </tspan>
<tspan x="10" y="9530">  │ │   └── window-size@0.1.0 </tspan>
<tspan x="10" y="9546">  │ ├─┬ watchpack@1.3.1 </tspan>
<tspan x="10" y="9562">  │ │ └─┬ chokidar@1.6.1 </tspan>
<tspan x="10" y="9578">  │ │   ├─┬ anymatch@1.3.0 </tspan>
<tspan x="10" y="9594">  │ │   │ ├── arrify@1.0.1 </tspan>
<tspan x="10" y="9610">  │ │   │ └─┬ micromatch@2.3.11 </tspan>
<tspan x="10" y="9626">  │ │   │   ├─┬ arr-diff@2.0.0 </tspan>
<tspan x="10" y="9642">  │ │   │   │ └── arr-flatten@1.0.3 </tspan>
<tspan x="10" y="9658">  │ │   │   ├── array-unique@0.2.1 </tspan>
<tspan x="10" y="9674">  │ │   │   ├─┬ braces@1.8.5 </tspan>
<tspan x="10" y="9690">  │ │   │   │ ├─┬ expand-range@1.8.2 </tspan>
<tspan x="10" y="9706">  │ │   │   │ │ └─┬ fill-range@2.2.3 </tspan>
<tspan x="10" y="9722">  │ │   │   │ │   ├── is-number@2.1.0 </tspan>
<tspan x="10" y="9738">  │ │   │   │ │   ├── isobject@2.1.0 </tspan>
<tspan x="10" y="9754">  │ │   │   │ │   └── randomatic@1.1.6 </tspan>
<tspan x="10" y="9770">  │ │   │   │ ├── preserve@0.2.0 </tspan>
<tspan x="10" y="9786">  │ │   │   │ └── repeat-element@1.1.2 </tspan>
<tspan x="10" y="9802">  │ │   │   ├─┬ expand-brackets@0.1.5 </tspan>
<tspan x="10" y="9818">  │ │   │   │ └── is-posix-bracket@0.1.1 </tspan>
<tspan x="10" y="9834">  │ │   │   ├── extglob@0.3.2 </tspan>
<tspan x="10" y="9850">  │ │   │   ├── filename-regex@2.0.0 </tspan>
<tspan x="10" y="9866">  │ │   │   ├─┬ kind-of@3.1.0 </tspan>
<tspan x="10" y="9882">  │ │   │   │ └── is-buffer@1.1.5 </tspan>
<tspan x="10" y="9898">  │ │   │   ├─┬ normalize-path@2.1.1 </tspan>
<tspan x="10" y="9914">  │ │   │   │ └── remove-trailing-separator@1.0.1 </tspan>
<tspan x="10" y="9930">  │ │   │   ├─┬ object.omit@2.0.1 </tspan>
<tspan x="10" y="9946">  │ │   │   │ ├─┬ for-own@0.1.5 </tspan>
<tspan x="10" y="9962">  │ │   │   │ │ └── for-in@1.0.2 </tspan>
<tspan x="10" y="9978">  │ │   │   │ └── is-extendable@0.1.1 </tspan>
<tspan x="10" y="9994">  │ │   │   ├─┬ parse-glob@3.0.4 </tspan>
<tspan x="10" y="10010">  │ │   │   │ ├── glob-base@0.3.0 </tspan>
<tspan x="10" y="10026">  │ │   │   │ └── is-dotfile@1.0.2 </tspan>
<tspan x="10" y="10042">  │ │   │   └─┬ regex-cache@0.4.3 </tspan>
<tspan x="10" y="10058">  │ │   │     ├── is-equal-shallow@0.1.3 </tspan>
<tspan x="10" y="10074">  │ │   │     └── is-primitive@2.0.0 </tspan>
<tspan x="10" y="10090">  │ │   ├── async-each@1.0.1 </tspan>
<tspan x="10" y="10106">  │ │   ├── glob-parent@2.0.0 </tspan>
<tspan x="10" y="10122">  │ │   ├─┬ is-binary-path@1.0.1 </tspan>
<tspan x="10" y="10138">  │ │   │ └── binary-extensions@1.8.0 </tspan>
<tspan x="10" y="10154">  │ │   ├─┬ is-glob@2.0.1 </tspan>
<tspan x="10" y="10170">  │ │   │ └── is-extglob@1.0.0 </tspan>
<tspan x="10" y="10186">  │ │   └─┬ readdirp@2.1.0 </tspan>
<tspan x="10" y="10202">  │ │     └── set-immediate-shim@1.0.1 </tspan>
<tspan x="10" y="10218">  │ └─┬ webpack-sources@0.2.3 </tspan>
<tspan x="10" y="10234">  │   └── source-list-map@1.1.1 </tspan>
<tspan x="10" y="10250">  └─┬ yargs@6.6.0 </tspan>
<tspan x="10" y="10266">    ├── camelcase@3.0.0 </tspan>
<tspan x="10" y="10282">    ├─┬ cliui@3.2.0 </tspan>
<tspan x="10" y="10298">    │ └── wrap-ansi@2.1.0 </tspan>
<tspan x="10" y="10314">    ├── decamelize@1.2.0 </tspan>
<tspan x="10" y="10330">    ├── get-caller-file@1.0.2 </tspan>
<tspan x="10" y="10346">    ├─┬ os-locale@1.4.0 </tspan>
<tspan x="10" y="10362">    │ └─┬ lcid@1.0.0 </tspan>
<tspan x="10" y="10378">    │   └── invert-kv@1.0.0 </tspan>
<tspan x="10" y="10394">    ├─┬ read-pkg-up@1.0.1 </tspan>
<tspan x="10" y="10410">    │ ├─┬ find-up@1.1.2 </tspan>
<tspan x="10" y="10426">    │ │ └── path-exists@2.1.0 </tspan>
<tspan x="10" y="10442">    │ └─┬ read-pkg@1.1.0 </tspan>
<tspan x="10" y="10458">    │   ├─┬ load-json-file@1.1.0 </tspan>
<tspan x="10" y="10474">    │   │ ├── pify@2.3.0 </tspan>
<tspan x="10" y="10490">    │   │ └─┬ strip-bom@2.0.0 </tspan>
<tspan x="10" y="10506">    │   │   └── is-utf8@0.2.1 </tspan>
<tspan x="10" y="10522">    │   └── path-type@1.1.0 </tspan>
<tspan x="10" y="10538">    ├── require-directory@2.1.1 </tspan>
<tspan x="10" y="10554">    ├── require-main-filename@1.0.1 </tspan>
<tspan x="10" y="10570">    ├── set-blocking@2.0.0 </tspan>
<tspan x="10" y="10586">    ├─┬ string-width@1.0.2 </tspan>
<tspan x="10" y="10602">    │ ├── code-point-at@1.1.0 </tspan>
<tspan x="10" y="10618">    │ └─┬ is-fullwidth-code-point@1.0.0 </tspan>
<tspan x="10" y="10634">    │   └── number-is-nan@1.0.1 </tspan>
<tspan x="10" y="10650">    ├── which-module@1.0.0 </tspan>
<tspan x="10" y="10666">    ├── y18n@3.2.1 </tspan>
<tspan x="10" y="10682">    └── yargs-parser@4.2.1</tspan>
</text>
</svg>
